<?xml version="1.0" encoding="utf-8"?>
<!-- Generator: Adobe Illustrator 21.0.0, SVG Export Plug-In . SVG Version: 6.00 Build 0)  -->
<svg version="1.2" baseProfile="tiny" id="图层_1"
	 xmlns="http://www.w3.org/2000/svg" xmlns:xlink="http://www.w3.org/1999/xlink" x="0px" y="0px" viewBox="0 0 160 160"
	 overflow="scroll" xml:space="preserve">
<g>
	<path fill="#FDFDFE" d="M88.806,34.36c0,6.697-0.019,13.395,0.005,20.092c0.028,7.624,5.665,13.37,13.275,13.514
		c3.382,0.064,6.769,0.091,10.148-0.022c1.473-0.049,2.151,0.409,2.651,1.822c1.978,5.596,6.633,8.514,12.885,8.263
		c5.171-0.208,9.627-3.954,11.091-9.324c1.716-6.293-1.886-13.096-8.009-15.13c-6.497-2.157-13.494,0.956-15.78,7.278
		c-0.709,1.961-1.675,2.441-3.582,2.313c-3.438-0.232-6.905,0.22-10.339-0.23c-4.236-0.555-7.453-4.055-7.465-8.329
		c-0.05-17.607-0.015-35.213-0.045-52.82c0-0.163,0.004-0.31,0.012-0.447c-0.122-0.021-0.243-0.045-0.365-0.065
		c0.006,0.27-0.089,0.593-0.088,0.82c0.023,17.389,0.019,34.778,0.019,52.167c0,0.276,0.097,0.615-0.026,0.818
		c-1.469,2.429-0.338,4.306,1.292,6.036c1.519,1.611,3.286,2.578,5.533,3.233c3.565,1.039,7.083,0.455,10.61,0.686
		c0.869,0.057,1.656-0.017,1.661,1.242c0.005,1.242-0.743,1.265-1.636,1.26c-2.691-0.015-5.382-0.003-8.073-0.008
		c-0.544-0.001-1.147,0.095-1.484-0.487c-0.669-1.152-1.884-1.288-2.981-1.653c-4.553-1.516-7.377-5.439-7.378-10.257
		c-0.002-8.557-0.001-17.113-0.001-25.67c0-8.625-0.001-17.251,0.002-25.877c0-0.551-0.064-1.123,0.057-1.65
		c0.111-0.481,0.385-0.77,0.724-0.942c-0.894-0.128-1.793-0.244-2.697-0.343c-0.01,0.19-0.023,0.381-0.023,0.566
		C88.811,12.265,88.806,23.313,88.806,34.36z M126.663,58.452c3.86-0.005,7.115,3.204,7.141,7.038
		c0.026,3.783-3.31,7.141-7.088,7.136c-3.846-0.005-7.114-3.257-7.12-7.085C119.59,61.651,122.774,58.457,126.663,58.452z"/>
	<path fill="#2B579A" d="M88.805,112.329c0.003-9.234,5.446-14.688,14.648-14.692c3.038-0.001,6.083-0.117,9.112,0.049
		c1.568,0.086,1.932-0.657,2.356-1.89c1.672-4.863,5.916-7.928,11.106-8.168c5.389-0.25,9.926,2.388,12.1,7.034
		c3.032,6.481,0.135,14.257-6.344,17.024c-6.721,2.871-14.281-0.277-16.776-7.158c-0.612-1.687-1.434-2.138-3.103-2.059
		c-2.825,0.134-5.661,0.007-8.491,0.045c-6.258,0.085-9.74,3.577-9.747,9.806c-0.016,15.26,0.011,30.52-0.029,45.779
		c-0.001,0.353,0.014,0.639,0.049,0.883c37.682-6.476,66.361-39.288,66.361-78.818c0-39.542-28.695-72.361-66.393-78.824
		c-0.008,0.136-0.012,0.284-0.012,0.447c0.029,17.607-0.005,35.213,0.045,52.82c0.012,4.275,3.229,7.774,7.465,8.329
		c3.434,0.45,6.901-0.001,10.339,0.23c1.907,0.128,2.873-0.352,3.582-2.313c2.287-6.322,9.283-9.435,15.78-7.278
		c6.123,2.033,9.725,8.837,8.009,15.13c-1.464,5.37-5.921,9.116-11.091,9.324c-6.253,0.251-10.907-2.666-12.885-8.263
		c-0.5-1.414-1.177-1.872-2.651-1.822c-3.379,0.113-6.766,0.086-10.148,0.022c-7.61-0.143-13.247-5.889-13.275-13.514
		c-0.025-6.697-0.005-13.395-0.005-20.092c0-11.047,0.005-22.095-0.008-33.142c0-0.185,0.013-0.377,0.023-0.566
		c-2.883-0.315-5.808-0.489-8.774-0.489c-40.852,0-74.528,30.627-79.377,70.168c0.166-0.004,0.333-0.009,0.5-0.009
		c14.638-0.002,29.278,0.11,43.915-0.05c6.932-0.076,12.553,2.167,16.634,7.84c2.323,3.229,3.39,6.878,3.387,10.873
		c-0.018,22.924,0.008,45.849-0.041,68.773c-0.001,0.379,0.017,0.704,0.059,0.995c3.201,0.604,6.467,1.019,9.79,1.23
		c-0.001-0.016,0-0.029-0.001-0.045c-0.04-0.48-0.003-0.966-0.003-1.449c0-33.972-0.077-67.944,0.081-101.916
		c0.025-5.271-3.393-10.195-10.023-10.049c-3.313,0.073-6.63,0.066-9.942-0.013c-1.416-0.034-2.112,0.279-2.622,1.819
		c-1.968,5.948-7.883,9.325-14.054,8.28c-6.026-1.02-10.272-6.018-10.328-12.157c-0.06-6.498,3.915-11.408,10.23-12.637
		c6.049-1.178,12.071,2.205,14.11,8.154c0.521,1.52,1.25,1.841,2.665,1.812c3.658-0.074,7.319-0.037,10.978-0.024
		c8.062,0.03,13.678,5.616,13.68,13.661c0.011,34.248,0.005,68.496,0.005,102.745c0,0.897,0.003,1.533,0.074,1.992
		c0.094,0,0.187,0.007,0.282,0.007c2.903,0,5.766-0.164,8.589-0.465c0.166-0.589,0.169-1.466,0.169-2.833
		C88.804,142.02,88.801,127.174,88.805,112.329z"/>
	<path fill="#FCFDFD" d="M51.196,119.033c0-3.314,0.042-6.629-0.01-9.942c-0.132-8.404-5.62-13.806-13.982-13.814
		c-0.483,0-0.974-0.056-1.449,0.009c-2.683,0.368-4.346-0.307-5.626-3.155c-2.022-4.498-8.065-6.336-12.89-4.589
		c-4.891,1.771-7.701,6.79-6.789,12.124c0.845,4.94,5.091,8.521,10.176,8.58c5.002,0.058,8.461-2.106,10.358-6.694
		c0.459-1.111,1.031-1.469,2.141-1.417c1.378,0.065,2.761,0.011,4.142,0.018c5.121,0.026,8.969,3.402,9.017,8.521
		c0.14,14.682,0.045,29.367,0.071,44.051c0.289,0.134,0.581,0.263,0.872,0.394c-0.274-0.282-0.439-0.708-0.437-1.337
		c0.047-14.357-0.003-28.715,0.076-43.072c0.009-1.557,0.913-3.067-0.209-4.632c-1.387-1.934-2.869-3.697-5.149-4.615
		c-0.95-0.383-1.752-0.652-2.899-0.225c-1.159,0.432-2.582,0.154-3.889,0.193c-0.752,0.022-1.169-0.279-1.148-1.088
		c0.018-0.702,0.283-1.148,1.004-1.357c5.65-1.638,12.897,2.137,14.579,7.655c0.195,0.639,0.143,1.364,0.143,2.05
		c0.009,7.455,0.006,14.909,0.006,22.364c0,7.593,0.011,15.186-0.02,22.778c-0.003,0.645,0.438,1.75-0.773,1.74
		c-0.111-0.001-0.218-0.009-0.323-0.022c0.992,0.431,1.997,0.836,3.009,1.228c-0.008-0.173-0.011-0.35-0.011-0.536
		C51.204,142.507,51.196,130.77,51.196,119.033z M20.893,103.675c-3.286-0.045-5.976-2.834-5.924-6.144
		c0.052-3.322,2.753-5.909,6.148-5.887c3.282,0.021,5.984,2.8,5.934,6.102C27.001,100.98,24.157,103.72,20.893,103.675z"/>
	<path fill="#FCFDFD" d="M79.685,55.419c-0.003-8.045-5.618-13.631-13.68-13.661c-3.66-0.014-7.32-0.05-10.978,0.024
		c-1.415,0.029-2.144-0.293-2.665-1.812c-2.039-5.949-8.06-9.332-14.11-8.154c-6.315,1.229-10.29,6.139-10.23,12.637
		c0.057,6.14,4.302,11.137,10.328,12.157c6.171,1.045,12.086-2.332,14.054-8.28c0.509-1.54,1.206-1.853,2.622-1.819
		c3.313,0.079,6.629,0.087,9.942,0.013c6.63-0.147,10.048,4.777,10.023,10.049c-0.158,33.971-0.081,67.944-0.081,101.916
		c0,0.483-0.037,0.97,0.003,1.449c0.001,0.016,0,0.029,0.001,0.045c1.606,0.102,3.221,0.169,4.851,0.174
		c-0.072-0.46-0.074-1.096-0.074-1.992C79.689,123.915,79.696,89.667,79.685,55.419z M37.615,32.988
		c4.139-0.522,7.852,0.091,10.874,2.949c2.268,2.145,3.305,5.112,3.217,8.188c-0.073,2.561-0.568,5.104-2.494,7.211
		c-1.784,1.952-4.144,2.996-6.157,4.564c-1.8-1.491-4.066,0.476-5.469-0.343c-2.204-1.287-4.964-2.13-6.194-4.79
		c-1.015-2.196-2.082-4.367-2.803-5.875C28.585,40.31,34.6,33.368,37.615,32.988z M77.89,159.095
		c-2.476,1.205-2.483,1.205-2.483-1.453c-0.002-34.004-0.078-68.009,0.118-102.012c0.019-3.368-0.328-6.028-2.974-8.126
		c-1.123-0.89-2.253-1.889-3.894-1.272c-0.184,0.069-0.471,0.148-0.591,0.06c-3.167-2.324-6.776-0.619-10.139-1.123
		c-0.743-0.112-1.528-0.013-2.249-0.191c-0.845-0.209-1.479-0.721-1.394-1.764c0.097-1.192,0.99-0.94,1.699-0.944
		c3.311-0.019,6.622-0.015,9.932-0.001c0.476,0.002,1.164-0.085,1.391,0.181c1.395,1.628,3.552,1.726,5.221,2.749
		c2.883,1.767,4.828,4.195,4.97,7.76c0.012,0.306,0.256,0.602,0.392,0.903c0.678,0.611,0.402,1.422,0.403,2.146
		c0.013,33.648,0.013,67.296,0,100.944C78.293,157.674,78.568,158.484,77.89,159.095z"/>
	<path fill="#FCFDFD" d="M65.105,88.985c0.003-3.994-1.064-7.644-3.387-10.873c-4.081-5.672-9.702-7.915-16.634-7.84
		c-14.637,0.16-29.276,0.048-43.915,0.05c-0.167,0-0.334,0.005-0.5,0.009c-0.025,0.2-0.053,0.399-0.076,0.599
		c0.149-0.048,0.315-0.078,0.511-0.076c0.483,0.005,0.966-0.006,1.45-0.006c14.774,0,29.548,0,44.322-0.001
		c1.091,0,2.05-0.016,2.963,0.969c1.079,1.164,2.9,0.84,4.351,1.574c4.204,2.13,7.028,5.525,8.5,9.711
		c1.101,3.129,2.203,6.319,2.068,9.955c-0.367,9.859-0.126,19.74-0.126,29.612c0,11.046,0.018,22.092-0.036,33.137
		c-0.004,0.845,0.752,2.344-1,2.413c-1.91,0.075-1.433-1.497-1.434-2.569c-0.02-21.539-0.018-43.079-0.008-64.618
		c0.001-1.53,0.11-3.057-1.198-4.215c-0.182-0.161-0.327-0.476-0.323-0.717c0.08-4.63-4.201-10.372-8.757-11.403
		c-3.755-0.849-7.503-1.516-11.453-1.447C27.862,73.473,15.295,73.334,2.73,73.33c-0.62,0-1.258,0.044-1.855-0.085
		c-0.214-0.046-0.367-0.141-0.492-0.258c-0.062,0.696-0.115,1.394-0.159,2.094c0.16-0.011,0.326-0.019,0.51-0.018
		c15.051,0.054,30.102,0.018,45.153,0.036c8.292,0.01,14.295,5.992,14.341,14.397c0.062,11.184,0.015,22.369,0.016,33.554
		c0.001,11.254-0.024,22.507,0.028,33.761c0.002,0.334-0.016,0.617-0.047,0.872c1.612,0.411,3.25,0.757,4.899,1.068
		c-0.042-0.291-0.06-0.616-0.059-0.995C65.112,134.833,65.087,111.909,65.105,88.985z"/>
	<path fill="#FCFDFD" d="M93.685,158.982c-0.035-0.244-0.05-0.53-0.049-0.883c0.04-15.26,0.013-30.52,0.029-45.779
		c0.007-6.229,3.488-9.721,9.747-9.806c2.831-0.039,5.667,0.089,8.491-0.045c1.669-0.079,2.491,0.372,3.103,2.059
		c2.496,6.881,10.055,10.029,16.776,7.158c6.479-2.768,9.376-10.543,6.344-17.024c-2.174-4.646-6.711-7.283-12.1-7.034
		c-5.19,0.24-9.435,3.306-11.106,8.168c-0.424,1.233-0.787,1.976-2.356,1.89c-3.029-0.166-6.074-0.051-9.112-0.049
		c-9.201,0.004-14.645,5.459-14.648,14.692c-0.005,14.846-0.001,29.691-0.001,44.536c0,1.367-0.003,2.245-0.169,2.833
		C90.336,159.517,92.017,159.268,93.685,158.982z M138.757,100.679c-0.932,2.156-1.889,4.367-3.252,6.253
		c-1.347,1.864-3.304,2.982-5.607,3.893c-2.373,0.938-4.062,0.622-6.318-0.073c-3.49-1.076-5.77-3.192-7.013-6.361
		c-0.641-1.634-2.791-3.005-1.741-4.977c1.559-2.927,2.333-6.366,5.45-8.37c2.091-1.345,4.223-1.906,6.005-1.552
		c6.18,0,8.893,1.836,10.89,7.003C137.711,97.893,139.519,98.915,138.757,100.679z M91.924,159.089
		c-1.632-0.051-1.594-1.251-1.596-2.362c-0.015-7.664-0.008-15.328-0.008-22.993c0-6.974,0.088-13.949-0.028-20.921
		c-0.096-5.753,2.061-9.835,7.182-12.887c1.924-1.146,3.453-0.622,5.105-0.82c2.654-0.32,5.375-0.096,8.068-0.08
		c0.802,0.005,1.913-0.185,1.929,0.981c0.019,1.339-1.189,1.067-2.037,1.075c-2.693,0.025-5.386,0.008-8.078,0.01
		c-3.876,0.002-6.634,2.052-8.793,5.002c-0.779,1.065-1.497,2.335-0.533,3.797c0.227,0.344,0.08,0.943,0.081,1.425
		c0.003,15.19,0.009,30.381-0.015,45.571C93.2,157.797,93.713,159.145,91.924,159.089z"/>
	<path fill="#FEFEFE" d="M90.793,1.936c-0.121,0.526-0.057,1.098-0.057,1.65c-0.002,8.626-0.002,17.251-0.002,25.877
		c0,8.557-0.002,17.113,0.001,25.67c0.001,4.817,2.825,8.74,7.378,10.257c1.097,0.365,2.312,0.501,2.981,1.653
		c0.338,0.582,0.941,0.486,1.484,0.487c2.691,0.005,5.382-0.007,8.073,0.008c0.893,0.005,1.641-0.018,1.636-1.26
		c-0.005-1.259-0.792-1.185-1.661-1.242c-3.527-0.231-7.045,0.353-10.61-0.686c-2.247-0.655-4.014-1.621-5.533-3.233
		c-1.63-1.73-2.762-3.607-1.292-6.036c0.123-0.204,0.026-0.542,0.026-0.818c0-17.389,0.004-34.778-0.019-52.167
		c0-0.228,0.095-0.55,0.088-0.82c-0.589-0.098-1.178-0.194-1.771-0.28C91.178,1.167,90.904,1.456,90.793,1.936z"/>
	<path fill="#2B579A" d="M126.716,72.626c3.778,0.005,7.114-3.353,7.088-7.136c-0.026-3.835-3.282-7.043-7.141-7.038
		c-3.889,0.005-7.072,3.198-7.066,7.089C119.603,69.369,122.87,72.621,126.716,72.626z"/>
	<path fill="#2B579A" d="M60.243,123.052c-0.001-11.185,0.046-22.37-0.016-33.554C60.18,81.092,54.178,75.11,45.886,75.1
		c-15.051-0.018-30.102,0.017-45.153-0.036c-0.183-0.001-0.35,0.007-0.51,0.018c-0.106,1.682-0.177,3.373-0.177,5.081
		c0,32.143,18.966,59.842,46.309,72.56c-0.026-14.684,0.069-29.368-0.071-44.051c-0.049-5.119-3.896-8.495-9.017-8.521
		c-1.381-0.007-2.764,0.047-4.142-0.018c-1.109-0.052-1.681,0.307-2.141,1.417c-1.897,4.588-5.356,6.753-10.358,6.694
		c-5.085-0.059-9.331-3.639-10.176-8.58c-0.912-5.334,1.898-10.352,6.789-12.124c4.825-1.747,10.869,0.091,12.89,4.589
		c1.28,2.848,2.943,3.523,5.626,3.155c0.474-0.065,0.965-0.01,1.449-0.009c8.362,0.007,13.85,5.409,13.982,13.814
		c0.052,3.313,0.01,6.628,0.01,9.942c0,11.737,0.008,23.474-0.01,35.211c0,0.185,0.003,0.363,0.011,0.536
		c2.932,1.135,5.94,2.117,9.027,2.905c0.031-0.255,0.049-0.537,0.047-0.872C60.219,145.559,60.244,134.305,60.243,123.052z"/>
	<path fill="#FEFEFE" d="M0.875,73.245C1.472,73.374,2.11,73.33,2.73,73.33c12.565,0.004,25.132,0.143,37.693-0.079
		c3.95-0.07,7.698,0.597,11.453,1.447c4.556,1.03,8.837,6.773,8.757,11.403c-0.004,0.241,0.141,0.556,0.323,0.717
		c1.308,1.158,1.199,2.684,1.198,4.215c-0.01,21.539-0.012,43.079,0.008,64.618c0.001,1.072-0.477,2.644,1.434,2.569
		c1.751-0.069,0.996-1.567,1-2.413c0.054-11.046,0.036-22.091,0.036-33.137c0-9.872-0.241-19.753,0.126-29.612
		c0.135-3.636-0.968-6.826-2.068-9.955c-1.472-4.186-4.295-7.581-8.5-9.711c-1.451-0.735-3.272-0.41-4.351-1.574
		c-0.913-0.985-1.872-0.97-2.963-0.969c-14.774,0.001-29.548,0.001-44.322,0.001c-0.483,0-0.966,0.011-1.45,0.006
		c-0.195-0.002-0.361,0.028-0.511,0.076c-0.079,0.683-0.149,1.369-0.21,2.057C0.508,73.104,0.661,73.199,0.875,73.245z"/>
	<path fill="#FEFEFE" d="M77.498,52.958c-0.142-3.565-2.087-5.992-4.97-7.76c-1.669-1.023-3.826-1.122-5.221-2.749
		c-0.227-0.265-0.916-0.179-1.391-0.181c-3.311-0.013-6.622-0.017-9.932,0.001c-0.709,0.004-1.602-0.248-1.699,0.944
		c-0.085,1.043,0.549,1.555,1.394,1.764c0.721,0.179,1.506,0.08,2.249,0.191c3.363,0.504,6.972-1.2,10.139,1.123
		c0.12,0.088,0.407,0.009,0.591-0.06c1.641-0.617,2.771,0.383,3.894,1.272c2.646,2.097,2.993,4.758,2.974,8.126
		c-0.196,34.003-0.12,68.008-0.118,102.012c0,2.658,0.007,2.658,2.483,1.453c0-35.078,0-70.157,0-105.235
		C77.754,53.56,77.51,53.263,77.498,52.958z"/>
	<path fill="#FDFDFE" d="M31.392,50.767c1.23,2.66,3.991,3.504,6.194,4.79c1.403,0.82,3.669-1.147,5.469,0.343
		c2.013-1.569,4.373-2.612,6.157-4.564c1.925-2.106,2.42-4.65,2.494-7.211c0.088-3.076-0.949-6.044-3.217-8.188
		c-3.022-2.858-6.735-3.472-10.874-2.949c-3.015,0.38-9.031,7.322-9.027,11.904C29.31,46.399,30.377,48.571,31.392,50.767z
		 M40.51,37.051c3.759-0.021,7.15,3.356,7.146,7.116c-0.004,3.838-3.261,7.104-7.091,7.111c-3.889,0.007-7.072-3.156-7.101-7.056
		C33.436,40.408,36.713,37.072,40.51,37.051z"/>
	<path fill="#FEFEFE" d="M137.17,96.494c-1.998-5.166-4.71-7.003-10.89-7.003c-1.783-0.354-3.914,0.207-6.005,1.552
		c-3.116,2.005-3.89,5.443-5.45,8.37c-1.05,1.971,1.1,3.343,1.741,4.977c1.243,3.169,3.523,5.285,7.013,6.361
		c2.256,0.696,3.946,1.011,6.318,0.073c2.303-0.91,4.26-2.029,5.607-3.893c1.363-1.886,2.32-4.097,3.252-6.253
		C139.519,98.915,137.711,97.893,137.17,96.494z M126.83,107.159c-3.983,0.017-7.12-3.035-7.143-6.949
		c-0.022-3.926,3.091-7.13,6.96-7.16c3.906-0.031,7.128,3.096,7.193,6.98C133.903,103.852,130.667,107.143,126.83,107.159z"/>
	<path fill="#FEFEFE" d="M93.201,156.888c0.024-15.19,0.017-30.381,0.015-45.571c0-0.482,0.146-1.081-0.081-1.425
		c-0.964-1.462-0.247-2.732,0.533-3.797c2.158-2.949,4.917-4.999,8.793-5.002c2.693-0.002,5.386,0.016,8.078-0.01
		c0.848-0.008,2.056,0.265,2.037-1.075c-0.016-1.167-1.128-0.977-1.929-0.981c-2.693-0.016-5.414-0.24-8.068,0.08
		c-1.652,0.199-3.181-0.326-5.105,0.82c-5.121,3.052-7.278,7.134-7.182,12.887c0.116,6.972,0.028,13.947,0.028,20.921
		c0,7.664-0.007,15.328,0.008,22.993c0.002,1.111-0.036,2.311,1.596,2.362C93.713,159.145,93.2,157.797,93.201,156.888z"/>
	<path fill="#FEFEFE" d="M49.283,151.833c0.031-7.593,0.02-15.186,0.02-22.778c0-7.455,0.003-14.909-0.006-22.364
		c-0.001-0.685,0.051-1.411-0.143-2.05c-1.682-5.519-8.929-9.294-14.579-7.655c-0.721,0.209-0.986,0.655-1.004,1.357
		c-0.021,0.809,0.397,1.11,1.148,1.088c1.307-0.038,2.73,0.239,3.889-0.193c1.148-0.427,1.95-0.158,2.899,0.225
		c2.28,0.918,3.762,2.681,5.149,4.615c1.123,1.565,0.218,3.075,0.209,4.632c-0.079,14.357-0.029,28.714-0.076,43.072
		c-0.002,0.629,0.163,1.055,0.437,1.337c0.32,0.144,0.637,0.294,0.96,0.434c0.104,0.013,0.211,0.021,0.323,0.022
		C49.721,153.583,49.28,152.478,49.283,151.833z"/>
	<path fill="#2B579A" d="M21.117,91.644c-3.394-0.022-6.096,2.565-6.148,5.887c-0.052,3.31,2.638,6.099,5.924,6.144
		c3.263,0.044,6.108-2.695,6.158-5.929C27.102,94.445,24.399,91.666,21.117,91.644z"/>
	<path fill="#FDFDFE" d="M78.293,56.006c0-0.724,0.275-1.535-0.403-2.146c0,35.078,0,70.157,0,105.235
		c0.678-0.611,0.402-1.422,0.403-2.146C78.306,123.302,78.307,89.654,78.293,56.006z"/>
	<path fill="#2B579A" d="M40.565,51.278c3.83-0.007,7.087-3.274,7.091-7.111c0.004-3.76-3.387-7.137-7.146-7.116
		c-3.797,0.021-7.074,3.356-7.046,7.171C33.493,48.122,36.676,51.286,40.565,51.278z"/>
	<path fill="#2B579A" d="M126.647,93.05c-3.869,0.031-6.982,3.234-6.96,7.16c0.022,3.914,3.159,6.966,7.143,6.949
		c3.837-0.016,7.073-3.307,7.01-7.129C133.776,96.146,130.553,93.019,126.647,93.05z"/>
</g>
</svg>
